<mxfile host="app.diagrams.net" modified="2021-06-17T15:47:57.370Z" agent="5.0 (Linux; Android 10; CPH1937) AppleWebKit/537.36 (KHTML, like Gecko) Chrome/91.0.4472.101 Mobile Safari/537.36" etag="_6ES7dqV0mwv0nMSu5jV" version="14.8.0" type="github">
  <diagram id="LNHCMhSjeo7GKozTA4Ef" name="Page-1">
    <mxGraphModel dx="652" dy="1362" grid="1" gridSize="10" guides="1" tooltips="1" connect="1" arrows="1" fold="1" page="1" pageScale="1" pageWidth="827" pageHeight="1169" math="0" shadow="0">
      <root>
        <mxCell id="0" />
        <mxCell id="1" parent="0" />
        <mxCell id="WT08BFO5kpW9huQCXsKR-1" value="Loại báo" style="shape=table;startSize=30;container=1;collapsible=1;childLayout=tableLayout;fixedRows=1;rowLines=0;fontStyle=1;align=center;resizeLast=1;" vertex="1" parent="1">
          <mxGeometry x="80" y="40" width="180" height="100" as="geometry" />
        </mxCell>
        <mxCell id="WT08BFO5kpW9huQCXsKR-2" value="" style="shape=partialRectangle;collapsible=0;dropTarget=0;pointerEvents=0;fillColor=none;top=0;left=0;bottom=1;right=0;points=[[0,0.5],[1,0.5]];portConstraint=eastwest;" vertex="1" parent="WT08BFO5kpW9huQCXsKR-1">
          <mxGeometry y="30" width="180" height="30" as="geometry" />
        </mxCell>
        <mxCell id="WT08BFO5kpW9huQCXsKR-3" value="PK" style="shape=partialRectangle;connectable=0;fillColor=none;top=0;left=0;bottom=0;right=0;fontStyle=1;overflow=hidden;" vertex="1" parent="WT08BFO5kpW9huQCXsKR-2">
          <mxGeometry width="30" height="30" as="geometry" />
        </mxCell>
        <mxCell id="WT08BFO5kpW9huQCXsKR-4" value="Mã loại báo" style="shape=partialRectangle;connectable=0;fillColor=none;top=0;left=0;bottom=0;right=0;align=left;spacingLeft=6;fontStyle=5;overflow=hidden;" vertex="1" parent="WT08BFO5kpW9huQCXsKR-2">
          <mxGeometry x="30" width="150" height="30" as="geometry" />
        </mxCell>
        <mxCell id="WT08BFO5kpW9huQCXsKR-5" value="" style="shape=partialRectangle;collapsible=0;dropTarget=0;pointerEvents=0;fillColor=none;top=0;left=0;bottom=0;right=0;points=[[0,0.5],[1,0.5]];portConstraint=eastwest;" vertex="1" parent="WT08BFO5kpW9huQCXsKR-1">
          <mxGeometry y="60" width="180" height="30" as="geometry" />
        </mxCell>
        <mxCell id="WT08BFO5kpW9huQCXsKR-6" value="" style="shape=partialRectangle;connectable=0;fillColor=none;top=0;left=0;bottom=0;right=0;editable=1;overflow=hidden;" vertex="1" parent="WT08BFO5kpW9huQCXsKR-5">
          <mxGeometry width="30" height="30" as="geometry" />
        </mxCell>
        <mxCell id="WT08BFO5kpW9huQCXsKR-7" value="Tên loại báo" style="shape=partialRectangle;connectable=0;fillColor=none;top=0;left=0;bottom=0;right=0;align=left;spacingLeft=6;overflow=hidden;" vertex="1" parent="WT08BFO5kpW9huQCXsKR-5">
          <mxGeometry x="30" width="150" height="30" as="geometry" />
        </mxCell>
        <mxCell id="WT08BFO5kpW9huQCXsKR-14" value="Tờ báo" style="shape=table;startSize=30;container=1;collapsible=1;childLayout=tableLayout;fixedRows=1;rowLines=0;fontStyle=1;align=center;resizeLast=1;" vertex="1" parent="1">
          <mxGeometry x="580" y="40" width="180" height="160" as="geometry" />
        </mxCell>
        <mxCell id="WT08BFO5kpW9huQCXsKR-15" value="" style="shape=partialRectangle;collapsible=0;dropTarget=0;pointerEvents=0;fillColor=none;top=0;left=0;bottom=1;right=0;points=[[0,0.5],[1,0.5]];portConstraint=eastwest;" vertex="1" parent="WT08BFO5kpW9huQCXsKR-14">
          <mxGeometry y="30" width="180" height="30" as="geometry" />
        </mxCell>
        <mxCell id="WT08BFO5kpW9huQCXsKR-16" value="PK" style="shape=partialRectangle;connectable=0;fillColor=none;top=0;left=0;bottom=0;right=0;fontStyle=1;overflow=hidden;" vertex="1" parent="WT08BFO5kpW9huQCXsKR-15">
          <mxGeometry width="30" height="30" as="geometry" />
        </mxCell>
        <mxCell id="WT08BFO5kpW9huQCXsKR-17" value="Mã tờ báo" style="shape=partialRectangle;connectable=0;fillColor=none;top=0;left=0;bottom=0;right=0;align=left;spacingLeft=6;fontStyle=5;overflow=hidden;" vertex="1" parent="WT08BFO5kpW9huQCXsKR-15">
          <mxGeometry x="30" width="150" height="30" as="geometry" />
        </mxCell>
        <mxCell id="WT08BFO5kpW9huQCXsKR-18" value="" style="shape=partialRectangle;collapsible=0;dropTarget=0;pointerEvents=0;fillColor=none;top=0;left=0;bottom=0;right=0;points=[[0,0.5],[1,0.5]];portConstraint=eastwest;" vertex="1" parent="WT08BFO5kpW9huQCXsKR-14">
          <mxGeometry y="60" width="180" height="30" as="geometry" />
        </mxCell>
        <mxCell id="WT08BFO5kpW9huQCXsKR-19" value="" style="shape=partialRectangle;connectable=0;fillColor=none;top=0;left=0;bottom=0;right=0;editable=1;overflow=hidden;" vertex="1" parent="WT08BFO5kpW9huQCXsKR-18">
          <mxGeometry width="30" height="30" as="geometry" />
        </mxCell>
        <mxCell id="WT08BFO5kpW9huQCXsKR-20" value="Tên tờ báo" style="shape=partialRectangle;connectable=0;fillColor=none;top=0;left=0;bottom=0;right=0;align=left;spacingLeft=6;overflow=hidden;" vertex="1" parent="WT08BFO5kpW9huQCXsKR-18">
          <mxGeometry x="30" width="150" height="30" as="geometry" />
        </mxCell>
        <mxCell id="WT08BFO5kpW9huQCXsKR-21" value="" style="shape=partialRectangle;collapsible=0;dropTarget=0;pointerEvents=0;fillColor=none;top=0;left=0;bottom=0;right=0;points=[[0,0.5],[1,0.5]];portConstraint=eastwest;" vertex="1" parent="WT08BFO5kpW9huQCXsKR-14">
          <mxGeometry y="90" width="180" height="30" as="geometry" />
        </mxCell>
        <mxCell id="WT08BFO5kpW9huQCXsKR-22" value="" style="shape=partialRectangle;connectable=0;fillColor=none;top=0;left=0;bottom=0;right=0;editable=1;overflow=hidden;" vertex="1" parent="WT08BFO5kpW9huQCXsKR-21">
          <mxGeometry width="30" height="30" as="geometry" />
        </mxCell>
        <mxCell id="WT08BFO5kpW9huQCXsKR-23" value="Hình thức" style="shape=partialRectangle;connectable=0;fillColor=none;top=0;left=0;bottom=0;right=0;align=left;spacingLeft=6;overflow=hidden;" vertex="1" parent="WT08BFO5kpW9huQCXsKR-21">
          <mxGeometry x="30" width="150" height="30" as="geometry" />
        </mxCell>
        <mxCell id="WT08BFO5kpW9huQCXsKR-24" value="" style="shape=partialRectangle;collapsible=0;dropTarget=0;pointerEvents=0;fillColor=none;top=0;left=0;bottom=0;right=0;points=[[0,0.5],[1,0.5]];portConstraint=eastwest;" vertex="1" parent="WT08BFO5kpW9huQCXsKR-14">
          <mxGeometry y="120" width="180" height="30" as="geometry" />
        </mxCell>
        <mxCell id="WT08BFO5kpW9huQCXsKR-25" value="" style="shape=partialRectangle;connectable=0;fillColor=none;top=0;left=0;bottom=0;right=0;editable=1;overflow=hidden;" vertex="1" parent="WT08BFO5kpW9huQCXsKR-24">
          <mxGeometry width="30" height="30" as="geometry" />
        </mxCell>
        <mxCell id="WT08BFO5kpW9huQCXsKR-26" value="Đơn giá kì" style="shape=partialRectangle;connectable=0;fillColor=none;top=0;left=0;bottom=0;right=0;align=left;spacingLeft=6;overflow=hidden;" vertex="1" parent="WT08BFO5kpW9huQCXsKR-24">
          <mxGeometry x="30" width="150" height="30" as="geometry" />
        </mxCell>
        <mxCell id="WT08BFO5kpW9huQCXsKR-27" value="Khách hàng " style="shape=table;startSize=30;container=1;collapsible=1;childLayout=tableLayout;fixedRows=1;rowLines=0;fontStyle=1;align=center;resizeLast=1;" vertex="1" parent="1">
          <mxGeometry x="90" y="290" width="180" height="120" as="geometry" />
        </mxCell>
        <mxCell id="WT08BFO5kpW9huQCXsKR-28" value="" style="shape=partialRectangle;collapsible=0;dropTarget=0;pointerEvents=0;fillColor=none;top=0;left=0;bottom=1;right=0;points=[[0,0.5],[1,0.5]];portConstraint=eastwest;" vertex="1" parent="WT08BFO5kpW9huQCXsKR-27">
          <mxGeometry y="30" width="180" height="30" as="geometry" />
        </mxCell>
        <mxCell id="WT08BFO5kpW9huQCXsKR-29" value="PK" style="shape=partialRectangle;connectable=0;fillColor=none;top=0;left=0;bottom=0;right=0;fontStyle=1;overflow=hidden;" vertex="1" parent="WT08BFO5kpW9huQCXsKR-28">
          <mxGeometry width="30" height="30" as="geometry" />
        </mxCell>
        <mxCell id="WT08BFO5kpW9huQCXsKR-30" value="Mã khách hàng " style="shape=partialRectangle;connectable=0;fillColor=none;top=0;left=0;bottom=0;right=0;align=left;spacingLeft=6;fontStyle=5;overflow=hidden;" vertex="1" parent="WT08BFO5kpW9huQCXsKR-28">
          <mxGeometry x="30" width="150" height="30" as="geometry" />
        </mxCell>
        <mxCell id="WT08BFO5kpW9huQCXsKR-31" value="" style="shape=partialRectangle;collapsible=0;dropTarget=0;pointerEvents=0;fillColor=none;top=0;left=0;bottom=0;right=0;points=[[0,0.5],[1,0.5]];portConstraint=eastwest;" vertex="1" parent="WT08BFO5kpW9huQCXsKR-27">
          <mxGeometry y="60" width="180" height="30" as="geometry" />
        </mxCell>
        <mxCell id="WT08BFO5kpW9huQCXsKR-32" value="" style="shape=partialRectangle;connectable=0;fillColor=none;top=0;left=0;bottom=0;right=0;editable=1;overflow=hidden;" vertex="1" parent="WT08BFO5kpW9huQCXsKR-31">
          <mxGeometry width="30" height="30" as="geometry" />
        </mxCell>
        <mxCell id="WT08BFO5kpW9huQCXsKR-33" value="Tên khách hàng" style="shape=partialRectangle;connectable=0;fillColor=none;top=0;left=0;bottom=0;right=0;align=left;spacingLeft=6;overflow=hidden;" vertex="1" parent="WT08BFO5kpW9huQCXsKR-31">
          <mxGeometry x="30" width="150" height="30" as="geometry" />
        </mxCell>
        <mxCell id="WT08BFO5kpW9huQCXsKR-34" value="" style="shape=partialRectangle;collapsible=0;dropTarget=0;pointerEvents=0;fillColor=none;top=0;left=0;bottom=0;right=0;points=[[0,0.5],[1,0.5]];portConstraint=eastwest;" vertex="1" parent="WT08BFO5kpW9huQCXsKR-27">
          <mxGeometry y="90" width="180" height="30" as="geometry" />
        </mxCell>
        <mxCell id="WT08BFO5kpW9huQCXsKR-35" value="" style="shape=partialRectangle;connectable=0;fillColor=none;top=0;left=0;bottom=0;right=0;editable=1;overflow=hidden;" vertex="1" parent="WT08BFO5kpW9huQCXsKR-34">
          <mxGeometry width="30" height="30" as="geometry" />
        </mxCell>
        <mxCell id="WT08BFO5kpW9huQCXsKR-36" value="Ngày đặt" style="shape=partialRectangle;connectable=0;fillColor=none;top=0;left=0;bottom=0;right=0;align=left;spacingLeft=6;overflow=hidden;" vertex="1" parent="WT08BFO5kpW9huQCXsKR-34">
          <mxGeometry x="30" width="150" height="30" as="geometry" />
        </mxCell>
        <mxCell id="WT08BFO5kpW9huQCXsKR-66" value="Đơn đặt" style="shape=table;startSize=20;container=1;collapsible=1;childLayout=tableLayout;fixedRows=1;rowLines=0;fontStyle=1;align=center;resizeLast=1;" vertex="1" parent="1">
          <mxGeometry x="420" y="290" width="180" height="180" as="geometry" />
        </mxCell>
        <mxCell id="WT08BFO5kpW9huQCXsKR-67" value="" style="shape=partialRectangle;collapsible=0;dropTarget=0;pointerEvents=0;fillColor=none;top=0;left=0;bottom=0;right=0;points=[[0,0.5],[1,0.5]];portConstraint=eastwest;" vertex="1" parent="WT08BFO5kpW9huQCXsKR-66">
          <mxGeometry y="20" width="180" height="30" as="geometry" />
        </mxCell>
        <mxCell id="WT08BFO5kpW9huQCXsKR-68" value="PK,FK1" style="shape=partialRectangle;connectable=0;fillColor=none;top=0;left=0;bottom=0;right=0;fontStyle=1;overflow=hidden;" vertex="1" parent="WT08BFO5kpW9huQCXsKR-67">
          <mxGeometry width="60" height="30" as="geometry" />
        </mxCell>
        <mxCell id="WT08BFO5kpW9huQCXsKR-69" value="Mã khách hàng" style="shape=partialRectangle;connectable=0;fillColor=none;top=0;left=0;bottom=0;right=0;align=left;spacingLeft=6;fontStyle=5;overflow=hidden;" vertex="1" parent="WT08BFO5kpW9huQCXsKR-67">
          <mxGeometry x="60" width="120" height="30" as="geometry" />
        </mxCell>
        <mxCell id="WT08BFO5kpW9huQCXsKR-70" value="" style="shape=partialRectangle;collapsible=0;dropTarget=0;pointerEvents=0;fillColor=none;top=0;left=0;bottom=1;right=0;points=[[0,0.5],[1,0.5]];portConstraint=eastwest;" vertex="1" parent="WT08BFO5kpW9huQCXsKR-66">
          <mxGeometry y="50" width="180" height="30" as="geometry" />
        </mxCell>
        <mxCell id="WT08BFO5kpW9huQCXsKR-71" value="PK,FK2" style="shape=partialRectangle;connectable=0;fillColor=none;top=0;left=0;bottom=0;right=0;fontStyle=1;overflow=hidden;" vertex="1" parent="WT08BFO5kpW9huQCXsKR-70">
          <mxGeometry width="60" height="30" as="geometry" />
        </mxCell>
        <mxCell id="WT08BFO5kpW9huQCXsKR-72" value="Mã tờ báo" style="shape=partialRectangle;connectable=0;fillColor=none;top=0;left=0;bottom=0;right=0;align=left;spacingLeft=6;fontStyle=5;overflow=hidden;" vertex="1" parent="WT08BFO5kpW9huQCXsKR-70">
          <mxGeometry x="60" width="120" height="30" as="geometry" />
        </mxCell>
        <mxCell id="WT08BFO5kpW9huQCXsKR-76" value="" style="shape=partialRectangle;collapsible=0;dropTarget=0;pointerEvents=0;fillColor=none;top=0;left=0;bottom=0;right=0;points=[[0,0.5],[1,0.5]];portConstraint=eastwest;" vertex="1" parent="WT08BFO5kpW9huQCXsKR-66">
          <mxGeometry y="80" width="180" height="30" as="geometry" />
        </mxCell>
        <mxCell id="WT08BFO5kpW9huQCXsKR-77" value="" style="shape=partialRectangle;connectable=0;fillColor=none;top=0;left=0;bottom=0;right=0;editable=1;overflow=hidden;" vertex="1" parent="WT08BFO5kpW9huQCXsKR-76">
          <mxGeometry width="60" height="30" as="geometry" />
        </mxCell>
        <mxCell id="WT08BFO5kpW9huQCXsKR-78" value="Tờ báo khách đặt" style="shape=partialRectangle;connectable=0;fillColor=none;top=0;left=0;bottom=0;right=0;align=left;spacingLeft=6;overflow=hidden;" vertex="1" parent="WT08BFO5kpW9huQCXsKR-76">
          <mxGeometry x="60" width="120" height="30" as="geometry" />
        </mxCell>
        <mxCell id="WT08BFO5kpW9huQCXsKR-93" value="" style="shape=partialRectangle;collapsible=0;dropTarget=0;pointerEvents=0;fillColor=none;top=0;left=0;bottom=0;right=0;points=[[0,0.5],[1,0.5]];portConstraint=eastwest;" vertex="1" parent="WT08BFO5kpW9huQCXsKR-66">
          <mxGeometry y="110" width="180" height="30" as="geometry" />
        </mxCell>
        <mxCell id="WT08BFO5kpW9huQCXsKR-94" value="" style="shape=partialRectangle;connectable=0;fillColor=none;top=0;left=0;bottom=0;right=0;fontStyle=0;overflow=hidden;" vertex="1" parent="WT08BFO5kpW9huQCXsKR-93">
          <mxGeometry width="60" height="30" as="geometry" />
        </mxCell>
        <mxCell id="WT08BFO5kpW9huQCXsKR-95" value="Số kì" style="shape=partialRectangle;connectable=0;fillColor=none;top=0;left=0;bottom=0;right=0;align=left;spacingLeft=6;fontStyle=0;overflow=hidden;" vertex="1" parent="WT08BFO5kpW9huQCXsKR-93">
          <mxGeometry x="60" width="120" height="30" as="geometry" />
        </mxCell>
        <mxCell id="WT08BFO5kpW9huQCXsKR-97" value="" style="shape=partialRectangle;collapsible=0;dropTarget=0;pointerEvents=0;fillColor=none;top=0;left=0;bottom=0;right=0;points=[[0,0.5],[1,0.5]];portConstraint=eastwest;" vertex="1" parent="WT08BFO5kpW9huQCXsKR-66">
          <mxGeometry y="140" width="180" height="30" as="geometry" />
        </mxCell>
        <mxCell id="WT08BFO5kpW9huQCXsKR-98" value="" style="shape=partialRectangle;connectable=0;fillColor=none;top=0;left=0;bottom=0;right=0;fontStyle=0;overflow=hidden;" vertex="1" parent="WT08BFO5kpW9huQCXsKR-97">
          <mxGeometry width="60" height="30" as="geometry" />
        </mxCell>
        <mxCell id="WT08BFO5kpW9huQCXsKR-99" value="Thành tiền" style="shape=partialRectangle;connectable=0;fillColor=none;top=0;left=0;bottom=0;right=0;align=left;spacingLeft=6;fontStyle=0;overflow=hidden;" vertex="1" parent="WT08BFO5kpW9huQCXsKR-97">
          <mxGeometry x="60" width="120" height="30" as="geometry" />
        </mxCell>
        <mxCell id="WT08BFO5kpW9huQCXsKR-79" value="Loại báo_tờ báo" style="shape=table;startSize=30;container=1;collapsible=1;childLayout=tableLayout;fixedRows=1;rowLines=0;fontStyle=1;align=center;resizeLast=1;" vertex="1" parent="1">
          <mxGeometry x="320" y="60" width="180" height="130" as="geometry" />
        </mxCell>
        <mxCell id="WT08BFO5kpW9huQCXsKR-80" value="" style="shape=partialRectangle;collapsible=0;dropTarget=0;pointerEvents=0;fillColor=none;top=0;left=0;bottom=0;right=0;points=[[0,0.5],[1,0.5]];portConstraint=eastwest;" vertex="1" parent="WT08BFO5kpW9huQCXsKR-79">
          <mxGeometry y="30" width="180" height="30" as="geometry" />
        </mxCell>
        <mxCell id="WT08BFO5kpW9huQCXsKR-81" value="PK,FK1" style="shape=partialRectangle;connectable=0;fillColor=none;top=0;left=0;bottom=0;right=0;fontStyle=1;overflow=hidden;" vertex="1" parent="WT08BFO5kpW9huQCXsKR-80">
          <mxGeometry width="60" height="30" as="geometry" />
        </mxCell>
        <mxCell id="WT08BFO5kpW9huQCXsKR-82" value="Mã loại báo" style="shape=partialRectangle;connectable=0;fillColor=none;top=0;left=0;bottom=0;right=0;align=left;spacingLeft=6;fontStyle=5;overflow=hidden;" vertex="1" parent="WT08BFO5kpW9huQCXsKR-80">
          <mxGeometry x="60" width="120" height="30" as="geometry" />
        </mxCell>
        <mxCell id="WT08BFO5kpW9huQCXsKR-83" value="" style="shape=partialRectangle;collapsible=0;dropTarget=0;pointerEvents=0;fillColor=none;top=0;left=0;bottom=1;right=0;points=[[0,0.5],[1,0.5]];portConstraint=eastwest;" vertex="1" parent="WT08BFO5kpW9huQCXsKR-79">
          <mxGeometry y="60" width="180" height="30" as="geometry" />
        </mxCell>
        <mxCell id="WT08BFO5kpW9huQCXsKR-84" value="PK,FK2" style="shape=partialRectangle;connectable=0;fillColor=none;top=0;left=0;bottom=0;right=0;fontStyle=1;overflow=hidden;" vertex="1" parent="WT08BFO5kpW9huQCXsKR-83">
          <mxGeometry width="60" height="30" as="geometry" />
        </mxCell>
        <mxCell id="WT08BFO5kpW9huQCXsKR-85" value="Mã tờ báo" style="shape=partialRectangle;connectable=0;fillColor=none;top=0;left=0;bottom=0;right=0;align=left;spacingLeft=6;fontStyle=5;overflow=hidden;" vertex="1" parent="WT08BFO5kpW9huQCXsKR-83">
          <mxGeometry x="60" width="120" height="30" as="geometry" />
        </mxCell>
        <mxCell id="WT08BFO5kpW9huQCXsKR-86" value="" style="shape=partialRectangle;collapsible=0;dropTarget=0;pointerEvents=0;fillColor=none;top=0;left=0;bottom=0;right=0;points=[[0,0.5],[1,0.5]];portConstraint=eastwest;" vertex="1" parent="WT08BFO5kpW9huQCXsKR-79">
          <mxGeometry y="90" width="180" height="30" as="geometry" />
        </mxCell>
        <mxCell id="WT08BFO5kpW9huQCXsKR-87" value="" style="shape=partialRectangle;connectable=0;fillColor=none;top=0;left=0;bottom=0;right=0;editable=1;overflow=hidden;" vertex="1" parent="WT08BFO5kpW9huQCXsKR-86">
          <mxGeometry width="60" height="30" as="geometry" />
        </mxCell>
        <mxCell id="WT08BFO5kpW9huQCXsKR-88" value="Số kì" style="shape=partialRectangle;connectable=0;fillColor=none;top=0;left=0;bottom=0;right=0;align=left;spacingLeft=6;overflow=hidden;" vertex="1" parent="WT08BFO5kpW9huQCXsKR-86">
          <mxGeometry x="60" width="120" height="30" as="geometry" />
        </mxCell>
        <mxCell id="WT08BFO5kpW9huQCXsKR-100" style="edgeStyle=orthogonalEdgeStyle;rounded=0;orthogonalLoop=1;jettySize=auto;html=1;startArrow=ERone;startFill=0;endArrow=ERmany;endFill=0;" edge="1" parent="1" source="WT08BFO5kpW9huQCXsKR-2" target="WT08BFO5kpW9huQCXsKR-80">
          <mxGeometry relative="1" as="geometry" />
        </mxCell>
        <mxCell id="WT08BFO5kpW9huQCXsKR-101" style="edgeStyle=orthogonalEdgeStyle;rounded=0;orthogonalLoop=1;jettySize=auto;html=1;startArrow=ERone;startFill=0;endArrow=ERmany;endFill=0;" edge="1" parent="1" source="WT08BFO5kpW9huQCXsKR-15" target="WT08BFO5kpW9huQCXsKR-83">
          <mxGeometry relative="1" as="geometry" />
        </mxCell>
        <mxCell id="WT08BFO5kpW9huQCXsKR-102" style="edgeStyle=orthogonalEdgeStyle;rounded=0;orthogonalLoop=1;jettySize=auto;html=1;startArrow=ERone;startFill=0;endArrow=ERmany;endFill=0;" edge="1" parent="1" source="WT08BFO5kpW9huQCXsKR-28" target="WT08BFO5kpW9huQCXsKR-67">
          <mxGeometry relative="1" as="geometry" />
        </mxCell>
        <mxCell id="WT08BFO5kpW9huQCXsKR-103" style="edgeStyle=orthogonalEdgeStyle;rounded=0;orthogonalLoop=1;jettySize=auto;html=1;entryX=1;entryY=0.5;entryDx=0;entryDy=0;startArrow=ERone;startFill=0;endArrow=ERmany;endFill=0;" edge="1" parent="1" source="WT08BFO5kpW9huQCXsKR-15" target="WT08BFO5kpW9huQCXsKR-70">
          <mxGeometry relative="1" as="geometry">
            <Array as="points">
              <mxPoint x="790" y="85" />
              <mxPoint x="790" y="280" />
              <mxPoint x="620" y="280" />
              <mxPoint x="620" y="355" />
            </Array>
          </mxGeometry>
        </mxCell>
      </root>
    </mxGraphModel>
  </diagram>
</mxfile>
